<svg id="Layer_1" data-name="Layer 1" xmlns="http://www.w3.org/2000/svg" viewBox="0 0 800.83 461.38"><defs><style>.cls-1{fill:#00c6bb;}.cls-2{fill:#fff;}</style></defs><title>Logo-Troovix</title><path class="cls-1" d="M376.66,189.12V197a1.72,1.72,0,0,1-1.94,2h-15v83.68a1.71,1.71,0,0,1-1.94,1.94H349c-1.2,0-1.81-.64-1.81-1.94V199H332q-1.8,0-1.8-2v-7.92a1.6,1.6,0,0,1,1.8-1.81h42.68C376,187.31,376.66,187.92,376.66,189.12Z"/><path class="cls-1" d="M384.72,282.67V211.5a28.89,28.89,0,0,1,3-13.34,22.29,22.29,0,0,1,8.34-9.11,23.12,23.12,0,0,1,12.3-3.26q10.71,0,17.38,7.15t6.67,18.56v11.12a26.51,26.51,0,0,1-3.34,13.55,22.61,22.61,0,0,1-9,8.83l14.87,37.53.14.55a1.33,1.33,0,0,1-.55,1.12,2.33,2.33,0,0,1-1.39.41h-9.46A1.89,1.89,0,0,1,421.7,283l-13.21-35H397.23v34.75c0,1.3-.6,1.94-1.8,1.94h-8.9C385.33,284.61,384.72,284,384.72,282.67Zm23.22-46.29a10.83,10.83,0,0,0,8.61-3.68q3.21-3.69,3.2-9.8v-12a14.45,14.45,0,0,0-3.12-9.66,10.83,10.83,0,0,0-16.27,0,14.46,14.46,0,0,0-3.13,9.66v25.44Z"/><path class="cls-1" d="M455.89,282.74a22.64,22.64,0,0,1-8.69-9.25,29,29,0,0,1-3.12-13.62V212.06a29,29,0,0,1,3.12-13.63,22.67,22.67,0,0,1,8.69-9.24,24.76,24.76,0,0,1,12.79-3.27,24.51,24.51,0,0,1,12.65,3.27,23.1,23.1,0,0,1,8.68,9,26.37,26.37,0,0,1,3.13,12.92v49.76A26.38,26.38,0,0,1,490,273.77a23.1,23.1,0,0,1-8.68,9A24.6,24.6,0,0,1,468.68,286,24.85,24.85,0,0,1,455.89,282.74Zm21.34-12a13.36,13.36,0,0,0,3.26-9.31V210.53a13.41,13.41,0,0,0-3.26-9.32,11.94,11.94,0,0,0-17.24.14q-3.27,3.77-3.27,10.15v48.93q0,6.39,3.27,10.15a11.93,11.93,0,0,0,17.24.13Z"/><path class="cls-1" d="M516.91,282.74a22.64,22.64,0,0,1-8.69-9.25,29,29,0,0,1-3.13-13.62V212.06a29,29,0,0,1,3.13-13.63,22.67,22.67,0,0,1,8.69-9.24,24.76,24.76,0,0,1,12.79-3.27,24.51,24.51,0,0,1,12.65,3.27,23.1,23.1,0,0,1,8.68,9,26.37,26.37,0,0,1,3.13,12.92v49.76A26.38,26.38,0,0,1,551,273.77a23.1,23.1,0,0,1-8.68,9A24.6,24.6,0,0,1,529.7,286,24.85,24.85,0,0,1,516.91,282.74Zm21.34-12a13.36,13.36,0,0,0,3.26-9.31V210.53a13.41,13.41,0,0,0-3.26-9.32,11.94,11.94,0,0,0-17.24.14q-3.27,3.77-3.27,10.15v48.93q0,6.39,3.27,10.15a11.93,11.93,0,0,0,17.24.13Z"/><path class="cls-1" d="M613.72,187.87a1.31,1.31,0,0,1,.21,1.39L597.39,280c-.55,3.43-2.55,5.14-6,5.14h-7.65q-5.14,0-6-5.14l-16.54-90.77V189a1.48,1.48,0,0,1,1.67-1.67h9c1.29,0,2,.56,2.08,1.67l13.62,81.46L601.28,189a1.79,1.79,0,0,1,2-1.67h9A1.83,1.83,0,0,1,613.72,187.87Z"/><path class="cls-1" d="M625.47,187.31h8.76a1.6,1.6,0,0,1,1.8,1.81v93.55c0,1.3-.6,1.94-1.8,1.94h-8.76a1.72,1.72,0,0,1-2-1.94V189.12C623.52,187.92,624.17,187.31,625.47,187.31Z"/><path class="cls-1" d="M688,235.27q9.72,6.67,9.73,19.18v28.22a1.72,1.72,0,0,1-2,1.94h-8.75a1.72,1.72,0,0,1-1.95-1.94V253.89a13.43,13.43,0,0,0-3.06-9.1,10.63,10.63,0,0,0-15.84,0,13.43,13.43,0,0,0-3.06,9.1v28.78a1.72,1.72,0,0,1-1.95,1.94h-8.76a1.71,1.71,0,0,1-1.94-1.94V254.45q0-12.51,9.73-19.18-9.74-6.54-9.73-19V189.12c0-1.2.65-1.81,1.94-1.81h8.76c1.3,0,1.95.61,1.95,1.81v27.66A13.72,13.72,0,0,0,666.2,226,10.49,10.49,0,0,0,682,226a13.72,13.72,0,0,0,3.06-9.18V189.12c0-1.2.65-1.81,1.95-1.81h8.75c1.3,0,2,.61,2,1.81v27.11Q697.75,228.74,688,235.27Z"/><circle class="cls-1" cx="204.09" cy="230.69" r="101"/><polygon class="cls-2" points="260.07 168.4 148.1 168.4 148.1 188.7 193.94 188.7 193.94 297.18 214.24 297.18 214.24 188.7 260.07 188.7 260.07 168.4"/><polygon class="cls-2" points="259.6 208.94 246.42 193.5 204.09 229.64 161.75 193.5 148.57 208.94 188.46 242.99 148.57 277.04 161.75 292.48 204.09 256.34 246.42 292.48 259.6 277.04 219.72 242.99 259.6 208.94"/></svg>